<?xml version="1.0" encoding="UTF-8"?>
<svg xmlns="http://www.w3.org/2000/svg" xmlns:xlink="http://www.w3.org/1999/xlink" width="241.98pt" height="218.18pt" viewBox="0 0 241.98 218.18" version="1.1">
<defs>
<clipPath id="clip1">
  <path d="M 0 0 L 241.980469 0 L 241.980469 218.179688 L 0 218.179688 Z M 0 0 "/>
</clipPath>
</defs>
<g id="surface1">
<g clip-path="url(#clip1)" clip-rule="nonzero">
<path style="fill:none;stroke-width:85.039;stroke-linecap:butt;stroke-linejoin:miter;stroke:rgb(46.699524%,47.099304%,48.199463%);stroke-opacity:1;stroke-miterlimit:3.8637;" d="M 1011.796875 2065.628125 C 1121.210938 2163.909375 1298.59375 2163.870313 1408.046875 2065.628125 L 2295.234375 1268.83125 C 2404.6875 1170.55 2404.6875 1011.214063 2295.234375 912.971875 L 1408.046875 116.214063 C 1298.59375 17.932813 1121.210938 17.932813 1011.796875 116.214063 L 124.570313 913.010938 C 15.15625 1011.253125 15.15625 1170.589063 124.570313 1268.83125 Z M 1011.796875 2065.628125 " transform="matrix(0.1,0,0,-0.1,0,218.18)"/>
</g>
<path style=" stroke:none;fill-rule:nonzero;fill:rgb(100%,100%,100%);fill-opacity:1;" d="M 137.277344 193.507813 L 156.480469 207.109375 L 202.085938 164.589844 L 192.933594 139.5625 L 137.277344 193.507813 "/>
<path style=" stroke:none;fill-rule:evenodd;fill:rgb(13.699341%,12.199402%,12.5%);fill-opacity:1;" d="M 67.414063 82.078125 C 66.210938 82.078125 65.234375 83.054688 65.234375 84.257813 C 65.234375 85.460938 66.210938 86.433594 67.414063 86.433594 C 68.617188 86.433594 69.59375 85.460938 69.59375 84.257813 C 69.59375 83.054688 68.617188 82.078125 67.414063 82.078125 Z M 94.042969 83.773438 C 92.503906 83.773438 91.257813 85.019531 91.257813 86.558594 C 91.257813 88.09375 92.503906 89.339844 94.042969 89.339844 C 95.582031 89.339844 96.828125 88.09375 96.828125 86.558594 C 96.828125 85.019531 95.582031 83.773438 94.042969 83.773438 Z M 104.9375 92.730469 C 105.074219 93.480469 116.554688 95.269531 114.980469 85.347656 C 113.410156 75.421875 104.574219 76.992188 104.210938 78.6875 C 103.847656 80.382813 108.203125 79.777344 107.480469 85.710938 C 106.753906 91.640625 104.332031 89.460938 104.9375 92.730469 Z M 22.054688 124.5625 C 22.054688 124.5625 18.765625 93.300781 39.335938 83.226563 C 59.90625 73.148438 78.421875 75 78.421875 75 L 76.363281 88.160156 L 85.210938 74.382813 C 85.210938 74.382813 74.71875 75 77.390625 64.71875 C 79.546875 56.4375 93.230469 58.546875 112.980469 52.789063 C 132.730469 47.03125 150.832031 37.980469 150.832031 37.980469 L 145.484375 56.902344 C 145.484375 56.902344 150.542969 55.890625 155.289063 55.546875 C 158.929688 55.285156 162.558594 55.667969 162.558594 55.667969 L 154.125 63.277344 L 168.113281 71.09375 L 160.910156 73.148438 C 160.910156 73.148438 175.527344 105.601563 178.320313 118.546875 C 168.875 119.371094 145.972656 121.246094 125.371094 121.984375 C 103.121094 122.777344 83.410156 122.308594 76.730469 122.105469 L 76.777344 117.363281 L 40.363281 116.746094 L 50.238281 110.574219 C 50.238281 110.574219 28.636719 110.574219 22.054688 124.5625 Z M 187.484375 152.460938 C 192.769531 168.183594 201.4375 194.070313 201.4375 194.070313 L 160.296875 181.113281 L 159.882813 200.652344 L 111.335938 173.710938 L 110.71875 186.667969 L 67.519531 146.769531 L 76.570313 138.546875 L 76.597656 135.777344 L 187.484375 152.460938 "/>
<path style=" stroke:none;fill-rule:nonzero;fill:rgb(95.698547%,55.299377%,61.599731%);fill-opacity:1;" d="M 76.730469 122.105469 C 83.410156 122.308594 103.121094 122.777344 125.371094 121.984375 C 145.972656 121.246094 168.875 119.371094 178.320313 118.546875 C 178.4375 119.078125 178.53125 119.574219 178.605469 120.035156 C 180.453125 131.757813 182.511719 137.929688 183.539063 140.808594 C 183.832031 141.621094 185.394531 146.246094 187.484375 152.460938 L 76.597656 135.777344 L 76.730469 122.105469 "/>
</g>
</svg>
