<?xml version="1.0" encoding="UTF-8"?>
<svg xmlns="http://www.w3.org/2000/svg" xmlns:xlink="http://www.w3.org/1999/xlink" width="150.77pt" height="167.32pt" viewBox="0 0 150.77 167.32" version="1.1">
<defs>
<clipPath id="clip1">
  <path d="M 0 71 L 80 71 L 80 167.320313 L 0 167.320313 Z M 0 71 "/>
</clipPath>
</defs>
<g id="surface1">
<g clip-path="url(#clip1)" clip-rule="nonzero">
<path style=" stroke:none;fill-rule:nonzero;fill:rgb(13.699341%,12.199402%,12.5%);fill-opacity:1;" d="M 79.242188 129.394531 L 79.242188 71.976563 L 0 71.976563 L 0 129.394531 C 0 129.394531 -0.421875 151.007813 39.621094 167.320313 C 79.664063 151.007813 79.242188 129.394531 79.242188 129.394531 "/>
</g>
<path style=" stroke:none;fill-rule:nonzero;fill:rgb(13.699341%,12.199402%,12.5%);fill-opacity:1;" d="M 0 71.976563 L 79.242188 71.976563 L 79.242188 56.285156 L 0 56.285156 Z M 0 71.976563 "/>
<path style=" stroke:none;fill-rule:nonzero;fill:rgb(100%,100%,100%);fill-opacity:1;" d="M 1.414063 73.390625 C 1.414063 76.078125 1.414063 129.402344 1.414063 129.402344 C 1.414063 129.402344 1.414063 129.417969 1.414063 129.417969 C 1.414063 129.566406 1.460938 134.714844 6.121094 141.6875 C 8.902344 145.847656 12.757813 149.828125 17.570313 153.523438 C 23.503906 158.078125 30.921875 162.203125 39.621094 165.789063 C 48.402344 162.167969 55.878906 158 61.84375 153.394531 C 66.664063 149.667969 70.507813 145.652344 73.269531 141.460938 C 77.773438 134.617188 77.828125 129.613281 77.828125 129.394531 C 77.828125 129.394531 77.828125 76.078125 77.828125 73.390625 C 75.152344 73.390625 4.089844 73.390625 1.414063 73.390625 "/>
<path style=" stroke:none;fill-rule:nonzero;fill:rgb(92.498779%,75.299072%,81.599426%);fill-opacity:1;" d="M 2.828125 74.800781 C 2.828125 77.488281 2.828125 129.417969 2.828125 129.417969 C 2.828125 129.523438 2.933594 134.371094 7.296875 140.898438 C 9.992188 144.929688 13.738281 148.800781 18.433594 152.402344 C 24.136719 156.78125 31.265625 160.769531 39.621094 164.257813 C 48.058594 160.734375 55.246094 156.703125 60.976563 152.273438 C 65.675781 148.644531 69.414063 144.742188 72.085938 140.683594 C 76.363281 134.191406 76.414063 129.441406 76.414063 129.394531 C 76.414063 129.394531 76.414063 77.488281 76.414063 74.800781 C 73.742188 74.800781 5.5 74.800781 2.828125 74.800781 "/>
<path style=" stroke:none;fill-rule:nonzero;fill:rgb(100%,100%,100%);fill-opacity:1;" d="M 3.582031 75.554688 C 3.582031 76.984375 3.582031 121.261719 3.582031 121.261719 C 3.582031 128.0625 3.582031 129.257813 3.566406 129.515625 C 3.574219 129.464844 3.582031 129.40625 3.582031 129.40625 C 3.582031 129.457031 3.707031 134.171875 7.925781 140.480469 C 10.574219 144.441406 14.261719 148.253906 18.890625 151.804688 C 24.46875 156.089844 31.445313 160 39.621094 163.4375 C 47.878906 159.964844 54.910156 156.011719 60.515625 151.679688 C 65.148438 148.097656 68.832031 144.261719 71.457031 140.269531 C 75.5625 134.035156 75.660156 129.4375 75.660156 129.390625 C 75.660156 129.390625 75.660156 77.023438 75.660156 75.554688 C 74.199219 75.554688 5.042969 75.554688 3.582031 75.554688 "/>
<path style=" stroke:none;fill-rule:nonzero;fill:rgb(92.498779%,75.299072%,81.599426%);fill-opacity:1;" d="M 4.238281 76.214844 C 4.238281 78.769531 4.238281 127.183594 4.238281 127.183594 C 4.238281 128.632813 4.238281 129.207031 4.230469 129.476563 C 4.234375 129.449219 4.238281 129.398438 4.238281 129.398438 C 4.242188 129.4375 4.363281 133.332031 7.605469 138.75 L 74.933594 76.214844 C 71.378906 76.214844 6.886719 76.214844 4.238281 76.214844 "/>
<path style=" stroke:none;fill-rule:nonzero;fill:rgb(13.699341%,12.199402%,12.5%);fill-opacity:1;" d="M 7.605469 138.75 C 7.875 139.191406 8.160156 139.648438 8.472656 140.113281 C 11.082031 144.015625 14.722656 147.773438 19.292969 151.28125 C 24.769531 155.484375 31.605469 159.332031 39.621094 162.722656 C 47.714844 159.296875 54.609375 155.410156 60.113281 151.15625 C 64.6875 147.621094 68.320313 143.835938 70.90625 139.90625 C 74.863281 133.898438 75 129.472656 75.003906 129.382813 C 75.003906 129.359375 75.003906 78.898438 75.003906 76.214844 C 74.980469 76.214844 74.960938 76.214844 74.933594 76.214844 L 7.605469 138.75 "/>
<path style=" stroke:none;fill-rule:nonzero;fill:rgb(69.799805%,60.398865%,19.198608%);fill-opacity:1;" d="M 56.800781 115.605469 L 56 114.285156 L 60.195313 114.378906 L 59.535156 113.484375 C 59.535156 113.484375 60.242188 114.144531 65.328125 113.105469 C 70.417969 112.070313 70.984375 114.851563 70.984375 114.851563 C 70.984375 114.851563 73.761719 113.671875 74.421875 118.570313 C 74.421875 118.570313 72.914063 116.5 69.804688 119.5625 L 59.015625 130.257813 L 68.441406 135.0625 C 68.441406 135.0625 73.246094 130.257813 73.953125 132.988281 C 73.953125 132.988281 72.726563 132.847656 71.925781 134.589844 C 71.925781 134.589844 74.609375 133.175781 74.894531 135.863281 C 74.894531 135.863281 73.761719 134.589844 70.558594 138.027344 C 70.558594 138.027344 69.191406 142.035156 70.890625 141.5625 C 70.890625 141.5625 70.746094 142.789063 68.910156 142.410156 L 67.96875 139.726563 C 67.96875 139.726563 68.957031 136.804688 65.09375 139.773438 C 65.09375 139.773438 62.125 140.101563 60.335938 139.347656 L 58.214844 139.820313 L 59.394531 138.546875 L 54.304688 139.019531 L 55.105469 138.171875 L 50.394531 139.347656 L 33.152344 157.441406 C 33.152344 157.441406 30.136719 160.457031 25.472656 156.96875 L 28.394531 154.851563 C 28.394531 154.851563 23.726563 157.109375 19.441406 152.730469 L 22.363281 150.984375 C 22.363281 150.984375 16.285156 151.644531 14.304688 149.289063 L 17.273438 147.5 C 17.273438 147.5 12.136719 148.628906 9.121094 144.199219 L 13.269531 143.164063 C 13.269531 143.164063 8.273438 142.976563 5.636719 138.125 L 30.089844 131.574219 L 15.71875 122.246094 C 15.71875 122.246094 9.828125 118.195313 11.195313 109.808594 L 15.484375 112.257813 C 15.484375 112.257813 11.574219 108.160156 12.421875 99.347656 L 15.953125 101.046875 C 15.953125 101.046875 11.667969 96.144531 15.34375 88.703125 L 18.5 91.105469 C 18.5 91.105469 14.871094 85.121094 19.300781 78.148438 L 22.03125 80.785156 C 22.03125 80.785156 20.617188 75.980469 24.53125 72.636719 L 51.574219 113.859375 C 51.574219 113.859375 53.035156 116.167969 56.800781 115.605469 "/>
<path style=" stroke:none;fill-rule:nonzero;fill:rgb(100%,100%,100%);fill-opacity:1;" d="M 67.214844 114.800781 L 69.335938 114.851563 C 69.335938 114.851563 69.191406 115.742188 68.488281 116.167969 L 67.214844 114.800781 "/>
<path style=" stroke:none;fill-rule:nonzero;fill:rgb(96.099854%,97.299194%,92.498779%);fill-opacity:1;" d="M 11.761719 139.300781 C 14.839844 143.195313 20.523438 141 20.523438 141 L 35.964844 135.105469 C 35.328125 134.78125 33.453125 133.957031 32.902344 133.644531 L 11.761719 139.300781 "/>
<path style=" stroke:none;fill-rule:nonzero;fill:rgb(96.099854%,97.299194%,92.498779%);fill-opacity:1;" d="M 16.753906 144.109375 C 16.753906 144.109375 18.828125 146.933594 24.671875 144.109375 L 39.507813 136.730469 C 38.734375 136.417969 37.988281 136.085938 37.28125 135.753906 L 16.753906 144.109375 "/>
<path style=" stroke:none;fill-rule:nonzero;fill:rgb(96.099854%,97.299194%,92.498779%);fill-opacity:1;" d="M 22.597656 147.6875 C 26.3125 150.632813 32.113281 146.464844 32.113281 146.464844 L 43.542969 138.109375 C 42.761719 137.894531 41.992188 137.648438 41.242188 137.386719 L 22.597656 147.6875 "/>
<path style=" stroke:none;fill-rule:nonzero;fill:rgb(96.099854%,97.299194%,92.498779%);fill-opacity:1;" d="M 28.722656 151.457031 C 32.867188 153.90625 37.484375 149.570313 37.484375 149.570313 L 48.5625 138.984375 C 47.582031 138.917969 46.601563 138.785156 45.632813 138.597656 L 28.722656 151.457031 "/>
<path style=" stroke:none;fill-rule:nonzero;fill:rgb(96.099854%,97.299194%,92.498779%);fill-opacity:1;" d="M 47.65625 114.402344 L 21.945313 81.394531 C 21.945313 81.394531 19.898438 86.289063 22.386719 89.246094 L 45.757813 114.519531 C 46.40625 114.425781 47.042969 114.390625 47.65625 114.402344 "/>
<path style=" stroke:none;fill-rule:nonzero;fill:rgb(96.099854%,97.299194%,92.498779%);fill-opacity:1;" d="M 18.882813 98.5 L 40.972656 116.519531 C 41.492188 116.132813 42.011719 115.8125 42.535156 115.546875 L 17.835938 91.464844 C 17.835938 91.464844 16.4375 96.582031 18.882813 98.5 "/>
<path style=" stroke:none;fill-rule:nonzero;fill:rgb(96.099854%,97.299194%,92.498779%);fill-opacity:1;" d="M 18.5625 110.089844 L 37.023438 121.125 C 37.371094 120.523438 37.730469 119.976563 38.097656 119.472656 L 16.109375 102.886719 C 16.109375 102.886719 16.085938 108.734375 18.5625 110.089844 "/>
<path style=" stroke:none;fill-rule:nonzero;fill:rgb(96.099854%,97.299194%,92.498779%);fill-opacity:1;" d="M 18.101563 118.9375 L 34.84375 126.035156 C 35.019531 125.519531 35.203125 125.023438 35.386719 124.546875 L 14.1875 112.597656 C 14.1875 112.597656 14.507813 117.332031 18.101563 118.9375 "/>
<path style=" stroke:none;fill-rule:nonzero;fill:rgb(69.799805%,60.398865%,19.198608%);fill-opacity:1;" d="M 74.878906 69.257813 C 74.109375 69.257813 73.589844 67.527344 73.589844 64.945313 C 73.589844 62.367188 74.109375 60.632813 74.878906 60.632813 C 75.648438 60.632813 76.164063 62.367188 76.164063 64.945313 C 76.164063 67.527344 75.648438 69.257813 74.878906 69.257813 Z M 74.878906 59.546875 C 73.347656 59.546875 72.503906 61.464844 72.503906 64.945313 C 72.503906 68.429688 73.347656 70.34375 74.878906 70.34375 C 76.40625 70.34375 77.25 68.429688 77.25 64.945313 C 77.25 61.464844 76.40625 59.546875 74.878906 59.546875 Z M 69.050781 65.457031 L 67.273438 59.554688 L 65.847656 70.199219 L 67.03125 70.199219 L 67.753906 65.050781 L 69.050781 69.75 L 70.34375 65.050781 L 71.066406 70.199219 L 72.25 70.199219 L 70.824219 59.554688 Z M 49.636719 68.160156 L 50.363281 64.902344 L 51.085938 68.160156 Z M 48.425781 68.160156 L 47.972656 68.160156 L 47.792969 69.246094 L 48.183594 69.246094 L 47.96875 70.199219 L 49.183594 70.199219 L 49.398438 69.246094 L 51.328125 69.246094 L 51.539063 70.199219 L 52.753906 70.199219 L 50.363281 59.5625 Z M 30.992188 57.789063 L 30.132813 58.21875 C 30.5625 58.46875 31.492188 59.234375 31.492188 59.234375 C 31.34375 58.457031 30.992188 57.789063 30.992188 57.789063 Z M 30.433594 68.160156 L 31.160156 64.902344 L 31.882813 68.160156 Z M 29.222656 68.160156 L 28.769531 68.160156 L 28.589844 69.246094 L 28.980469 69.246094 L 28.765625 70.199219 L 29.980469 70.199219 L 30.195313 69.246094 L 32.125 69.246094 L 32.335938 70.199219 L 33.550781 70.199219 L 31.160156 59.5625 Z M 64.988281 62.953125 C 64.988281 61.859375 64.660156 61.015625 64.019531 60.441406 C 63.433594 59.910156 62.714844 59.746094 62.214844 59.703125 L 62.214844 59.691406 L 62.105469 59.691406 C 61.882813 59.679688 61.71875 59.6875 61.648438 59.691406 L 61.128906 59.691406 L 61.128906 70.199219 L 62.214844 70.199219 L 62.214844 60.792969 C 62.539063 60.835938 62.964844 60.949219 63.300781 61.253906 C 63.699219 61.613281 63.898438 62.1875 63.898438 62.953125 C 63.898438 64.929688 62.988281 65.472656 62.949219 65.492188 L 62.542969 65.722656 L 62.699219 66.164063 L 64.296875 70.394531 L 65.3125 70.007813 C 65.3125 70.007813 64.089844 66.773438 63.855469 66.152344 C 64.308594 65.722656 64.988281 64.777344 64.988281 62.953125 Z M 25.371094 60.71875 L 26.40625 60.71875 L 26.40625 70.199219 L 27.492188 70.199219 L 27.492188 60.71875 L 28.390625 60.71875 L 28.390625 59.632813 L 25.554688 59.632813 Z M 21.386719 60.71875 L 22.417969 60.71875 L 22.417969 70.199219 L 23.507813 70.199219 L 23.507813 60.71875 L 24.40625 60.71875 L 24.40625 59.632813 L 21.570313 59.632813 Z M 17.46875 60.605469 C 17.691406 60.605469 17.910156 60.675781 18.128906 60.816406 L 18.71875 59.90625 C 18.324219 59.648438 17.90625 59.519531 17.46875 59.519531 C 15.738281 59.519531 14.707031 61.550781 14.707031 64.945313 C 14.707031 68.347656 15.738281 70.375 17.46875 70.375 C 17.8125 70.375 18.148438 70.292969 18.46875 70.132813 L 17.980469 69.160156 C 17.8125 69.246094 17.640625 69.289063 17.46875 69.289063 C 16.449219 69.289063 15.792969 67.585938 15.792969 64.945313 C 15.792969 62.308594 16.449219 60.605469 17.46875 60.605469 Z M 58.621094 60.78125 C 59.164063 60.78125 60.109375 60.78125 60.109375 60.78125 L 59.746094 59.695313 L 57.535156 59.695313 L 57.535156 64.726563 L 57.058594 64.726563 L 57.058594 65.816406 L 57.535156 65.816406 L 57.535156 70.21875 L 60.09375 70.21875 L 60.09375 69.132813 C 60.09375 69.132813 59.203125 69.132813 58.621094 69.132813 C 58.621094 68.75 58.621094 67.359375 58.621094 65.816406 L 60.242188 65.816406 L 60.242188 64.726563 L 58.621094 64.726563 C 58.621094 62.945313 58.621094 61.214844 58.621094 60.78125 Z M 54.878906 59.691406 L 53.789063 59.691406 L 53.789063 70.21875 L 56.355469 70.21875 L 56.355469 69.132813 C 56.355469 69.132813 55.457031 69.132813 54.878906 69.132813 C 54.878906 68.160156 54.878906 59.691406 54.878906 59.691406 Z M 46.996094 64.210938 C 46.609375 64.578125 46.097656 64.703125 45.757813 64.746094 C 45.757813 62.789063 45.757813 61.222656 45.757813 60.800781 C 46.140625 60.84375 46.660156 60.96875 47.035156 61.320313 C 47.375 61.632813 47.539063 62.078125 47.539063 62.679688 C 47.539063 63.347656 47.355469 63.863281 46.996094 64.210938 Z M 47.769531 60.515625 C 46.757813 59.582031 45.238281 59.691406 45.171875 59.695313 L 44.671875 59.734375 L 44.671875 70.199219 L 45.757813 70.199219 C 45.757813 70.199219 45.757813 67.984375 45.757813 65.839844 C 46.246094 65.796875 47.085938 65.625 47.738281 65 C 48.328125 64.441406 48.625 63.660156 48.625 62.679688 C 48.625 61.769531 48.335938 61.042969 47.769531 60.515625 Z M 38.234375 68.976563 C 38.0625 69.0625 37.707031 69.101563 37.367188 69.117188 C 37.367188 68.214844 37.367188 61.710938 37.367188 60.789063 C 37.71875 60.808594 38.089844 60.847656 38.273438 60.921875 C 38.765625 61.121094 39.222656 61.730469 39.222656 64.808594 C 39.222656 68.066406 38.695313 68.746094 38.234375 68.976563 Z M 38.683594 59.914063 C 38.089844 59.675781 37.019531 59.6875 36.808594 59.691406 L 36.277344 59.703125 L 36.277344 70.167969 L 36.792969 70.199219 C 37.007813 70.210938 38.105469 70.257813 38.722656 69.949219 C 39.863281 69.378906 40.308594 67.9375 40.308594 64.808594 C 40.308594 61.722656 39.867188 60.394531 38.683594 59.914063 Z M 41.320313 70.199219 L 42.40625 70.199219 L 42.40625 59.691406 L 41.320313 59.691406 Z M 19.242188 70.199219 L 20.332031 70.199219 L 20.332031 59.691406 L 19.242188 59.691406 Z M 5.082031 68.628906 C 5.078125 68.828125 4.984375 69.304688 4.230469 69.304688 C 3.550781 69.304688 3.460938 68.824219 3.453125 68.617188 L 3.453125 59.691406 L 2.363281 59.691406 L 2.363281 68.628906 C 2.371094 69.34375 2.875 70.394531 4.230469 70.394531 C 4.828125 70.394531 5.304688 70.214844 5.65625 69.863281 C 6.15625 69.359375 6.171875 68.703125 6.167969 68.628906 L 6.167969 59.691406 L 5.082031 59.691406 Z M 9.976563 62.683594 C 9.976563 61.175781 11.839844 60.449219 11.855469 60.441406 L 11.472656 59.425781 C 11.367188 59.464844 8.886719 60.421875 8.886719 62.683594 C 8.886719 63.839844 9.464844 64.632813 9.972656 65.335938 C 10.460938 66.007813 10.878906 66.589844 10.878906 67.453125 C 10.878906 68.808594 9.078125 69.277344 9.058594 69.28125 L 9.316406 70.335938 C 9.425781 70.308594 11.96875 69.664063 11.96875 67.453125 C 11.96875 66.238281 11.375 65.421875 10.851563 64.699219 C 10.382813 64.046875 9.976563 63.484375 9.976563 62.683594 Z M 12.746094 70.199219 L 13.921875 70.199219 L 13.921875 69.023438 L 12.746094 69.023438 Z M 6.832031 70.199219 L 8.011719 70.199219 L 8.011719 69.023438 L 6.832031 69.023438 L 6.832031 70.199219 "/>
</g>
</svg>
